<?xml version="1.0" encoding="UTF-8" standalone="no"?>
<!-- Created with Inkscape (http://www.inkscape.org/) -->

<svg
   version="1.1"
   id="svg9"
   width="682.66669"
   height="682.66669"
   viewBox="0 0 682.66669 682.66669"
   sodipodi:docname="01a98b056ed72c91be89177576dbc999.svg"
   inkscape:version="1.2 (dc2aedaf03, 2022-05-15)"
   xmlns:inkscape="http://www.inkscape.org/namespaces/inkscape"
   xmlns:sodipodi="http://sodipodi.sourceforge.net/DTD/sodipodi-0.dtd"
   xmlns="http://www.w3.org/2000/svg"
   xmlns:svg="http://www.w3.org/2000/svg">
  <defs
     id="defs13" />
  <sodipodi:namedview
     id="namedview11"
     pagecolor="#ffffff"
     bordercolor="#000000"
     borderopacity="0.25"
     inkscape:showpageshadow="2"
     inkscape:pageopacity="0.0"
     inkscape:pagecheckerboard="0"
     inkscape:deskcolor="#d1d1d1"
     showgrid="false"
     inkscape:zoom="0.51997206"
     inkscape:cx="282.7075"
     inkscape:cy="255.78297"
     inkscape:window-width="1360"
     inkscape:window-height="705"
     inkscape:window-x="-8"
     inkscape:window-y="-8"
     inkscape:window-maximized="1"
     inkscape:current-layer="g15" />
  <g
     inkscape:groupmode="layer"
     inkscape:label="Image"
     id="g15">
    <path
       style="fill:#b3b3b3;stroke-width:1.23973"
       d="m 322.71201,655.14939 c -3.34714,-1.21329 -5.12546,-3.36499 -9.413,-11.3894 -2.90742,-5.44144 -7.70652,-14.04623 -10.66466,-19.12176 -2.95814,-5.07552 -9.79586,-16.20173 -15.19493,-24.72491 -5.39906,-8.52317 -15.44843,-23.58594 -22.33192,-33.47283 -6.88349,-9.88688 -25.69464,-35.82833 -41.80256,-57.64766 -16.10791,-21.81933 -35.57761,-48.59759 -43.26596,-59.50725 -7.68837,-10.90966 -18.30178,-26.80927 -23.58533,-35.33244 -5.28358,-8.52318 -13.04976,-21.74855 -17.25817,-29.38972 -4.2084,-7.64118 -10.63064,-20.75137 -14.27164,-29.13376 -3.641,-8.38241 -8.36287,-20.54059 -10.49305,-27.01821 -2.13019,-6.47761 -5.03664,-16.72233 -6.45879,-22.76603 -1.42215,-6.04372 -3.37568,-16.92239 -4.34118,-24.17483 -0.9655,-7.25244 -1.76634,-21.84805 -1.77965,-32.43466 -0.0133,-10.58663 0.56316,-23.97576 1.28106,-29.75363 0.71789,-5.77788 2.15929,-14.68933 3.20312,-19.80323 1.04383,-5.11391 3.8641,-15.4347 6.26727,-22.93509 2.40317,-7.5004 7.3967,-20.03545 11.09672,-27.85565 3.70002,-7.82021 10.8486,-20.37252 15.88573,-27.89403 5.03713,-7.5215 13.24657,-18.38647 18.2432,-24.144377 4.99661,-5.757908 14.02838,-14.833261 20.07058,-20.16745 6.0422,-5.33419 16.86759,-13.63158 24.0564,-18.438645 7.18882,-4.807067 18.00694,-11.219312 24.04029,-14.249436 6.03334,-3.030125 15.05842,-7.133531 20.05574,-9.118675 4.99732,-1.985153 14.3402,-4.996025 20.76196,-6.690838 6.91872,-1.825961 17.73725,-3.488501 26.55272,-4.080486 8.18225,-0.549456 25.19761,-1.006891 37.81191,-1.016514 12.61429,-0.0097 29.90859,0.465412 38.43177,1.055649 9.70333,0.671957 19.43615,2.194841 26.03442,4.07356 5.79576,1.650219 16.11655,5.226531 22.93509,7.947352 6.81854,2.72082 17.8475,8.026337 24.5088,11.790037 6.6613,3.7637 17.81891,11.085566 24.79468,16.270812 6.9758,5.185245 17.72666,14.492069 23.89082,20.681832 6.16417,6.189763 14.90522,16.017919 19.42457,21.840339 4.51935,5.82242 11.15092,15.30639 14.73683,21.07548 3.58591,5.7691 9.15053,16.06806 12.3658,22.88661 3.21528,6.81854 7.83342,18.25509 10.26255,25.41455 2.42912,7.15947 5.87614,19.99072 7.66005,28.5139 2.59806,12.41307 3.38158,20.31359 3.93758,39.70402 0.44154,15.39856 0.15274,28.93235 -0.79365,37.19204 -0.81829,7.14159 -2.61929,18.28456 -4.00223,24.76217 -1.38295,6.47762 -4.91814,19.10346 -7.856,28.05741 -2.93784,8.95397 -8.64976,23.52987 -12.69314,32.39087 -4.04337,8.86102 -11.12677,22.73452 -15.74089,30.82998 -4.61411,8.09548 -14.31457,23.64514 -21.55659,34.5548 -7.24204,10.90967 -32.44207,45.49826 -56.0001,76.86354 -23.55803,31.36529 -47.05733,63.16448 -52.22068,70.66487 -5.16335,7.5004 -14.12763,21.16847 -19.92063,30.3735 -5.793,9.20503 -13.94105,22.8731 -18.10678,30.3735 -7.02007,12.63966 -7.93973,13.75042 -12.5739,15.18674 -2.74992,0.85232 -6.54282,1.48311 -8.42866,1.40176 -1.88583,-0.0814 -5.28584,-0.82106 -7.55557,-1.64381 z m 29.15036,-292.58346 c 4.64709,-0.9888 11.5201,-2.86421 15.27335,-4.16757 3.75326,-1.30336 10.44782,-4.18636 14.87682,-6.40663 4.42899,-2.22028 11.43455,-6.43487 15.56791,-9.36577 4.13336,-2.9309 11.94369,-10.03037 17.35628,-15.77658 5.4126,-5.74622 12.10591,-14.30057 14.874,-19.00968 2.76809,-4.7091 6.51621,-12.18823 8.32916,-16.62028 1.81296,-4.43205 4.1404,-11.12662 5.17209,-14.87682 1.03169,-3.75019 2.38055,-11.40788 2.99748,-17.01708 0.68831,-6.25826 0.6644,-14.3601 -0.0618,-20.96979 -0.65097,-5.92418 -2.6061,-15.28184 -4.34473,-20.79482 -1.73862,-5.51296 -5.11293,-13.92874 -7.49843,-18.70171 -2.3855,-4.77298 -6.72171,-12.02543 -9.63601,-16.11655 -2.91433,-4.09113 -9.40429,-11.37979 -14.42215,-16.19703 -5.01786,-4.81723 -11.63384,-10.46197 -14.70218,-12.54388 -3.06835,-2.0819 -9.60207,-5.80762 -14.51938,-8.27939 -4.9173,-2.47177 -13.84339,-5.99349 -19.83575,-7.82603 -9.67103,-2.95753 -12.98458,-3.34152 -29.49121,-3.41761 -15.86044,-0.0731 -20.03584,0.33133 -28.38376,2.74923 -5.38326,1.55921 -13.81946,4.6977 -18.74714,6.97442 -4.92765,2.27673 -12.5176,6.54154 -16.86654,9.47735 -4.34894,2.93582 -11.6536,8.93583 -16.23257,13.33334 -4.57897,4.3975 -11.17625,12.11934 -14.66059,17.15963 -3.48436,5.04029 -8.2251,13.25466 -10.53501,18.25413 -2.30991,4.9995 -5.46279,13.49448 -7.00642,18.87774 -2.33659,8.14863 -2.80659,12.79813 -2.80659,27.76389 0,14.96577 0.47,19.61527 2.80659,27.7639 1.54363,5.38326 4.66936,13.81947 6.94609,18.74713 2.27672,4.92767 6.5463,12.51761 9.48796,16.86655 2.94167,4.34894 8.45034,11.18213 12.24147,15.18487 3.79114,4.00273 10.10456,9.75651 14.02983,12.78618 3.92526,3.02966 11.73559,7.92131 17.35628,10.87034 5.62069,2.94902 13.07186,6.28024 16.55817,7.40272 3.4863,1.12246 9.90193,2.81387 14.25695,3.75868 4.35501,0.94481 13.60001,1.76219 20.54443,1.81639 6.94443,0.0542 16.4284,-0.71046 21.07549,-1.69927 z"
       id="path241" />
    <path
       style="fill:#000000;stroke-width:1.33333"
       id="path239"
       d="" />
    <path
       style="fill:#000000;stroke-width:1.33333"
       id="path181"
       d="" />
    <path
       style="fill:#000000;stroke-width:1.33333"
       id="path179"
       d="" />
    <path
       style="fill:#000000;stroke-width:1.33333"
       id="path177"
       d="" />
  </g>
</svg>
