<?xml version="1.0" encoding="UTF-8" standalone="no"?>
<!-- Created with Inkscape (http://www.inkscape.org/) -->

<svg
   version="1.1"
   id="svg379"
   width="468.11429"
   height="468.11429"
   viewBox="0 0 468.11429 468.11429"
   sodipodi:docname="email.svg"
   inkscape:version="1.2 (dc2aedaf03, 2022-05-15)"
   xmlns:inkscape="http://www.inkscape.org/namespaces/inkscape"
   xmlns:sodipodi="http://sodipodi.sourceforge.net/DTD/sodipodi-0.dtd"
   xmlns="http://www.w3.org/2000/svg"
   xmlns:svg="http://www.w3.org/2000/svg">
  <defs
     id="defs383" />
  <sodipodi:namedview
     id="namedview381"
     pagecolor="#ffffff"
     bordercolor="#000000"
     borderopacity="0.25"
     inkscape:showpageshadow="2"
     inkscape:pageopacity="0.0"
     inkscape:pagecheckerboard="0"
     inkscape:deskcolor="#d1d1d1"
     showgrid="false"
     inkscape:zoom="0.75829261"
     inkscape:cx="6.5937607"
     inkscape:cy="233.41913"
     inkscape:window-width="1360"
     inkscape:window-height="705"
     inkscape:window-x="-8"
     inkscape:window-y="-8"
     inkscape:window-maximized="1"
     inkscape:current-layer="g385" />
  <g
     inkscape:groupmode="layer"
     inkscape:label="Image"
     id="g385">
    <path
       style="fill:#b3b3b3;stroke-width:0.780109"
       d="m 55.965569,342.55387 c 0,-1.98163 7.352951,-9.06229 61.139001,-58.87487 44.72622,-41.42206 61.62985,-56.62233 62.96748,-56.62233 1.31388,0 9.13558,6.76309 27.79201,24.03056 14.27995,13.21681 26.2686,24.03056 26.64145,24.03056 0.37286,0 12.36151,-10.81375 26.64145,-24.03056 18.65644,-17.26747 26.47814,-24.03056 27.79202,-24.03056 1.33763,0 18.24126,15.20027 62.96748,56.62233 53.78605,49.81258 61.139,56.89324 61.139,58.87487 v 2.25254 H 234.50551 55.965569 Z M 41.53042,329.99779 c 0,-0.71846 -0.341886,-1.08352 -0.759739,-0.81124 -0.505156,0.32916 -0.759748,-38.18933 -0.759748,-114.94618 0,-70.4554 0.273655,-115.262915 0.702245,-114.983639 0.386235,0.251671 0.813594,-0.06315 0.949683,-0.699619 0.152192,-0.711777 24.080987,20.914918 62.166609,56.185808 49.72968,46.0544 61.95146,57.75219 62.08315,59.42151 0.14367,1.82119 -6.65312,8.37507 -54.9054,52.94317 -30.288153,27.97558 -58.311041,53.86434 -62.273084,57.53059 -4.581995,4.23992 -7.203716,6.19048 -7.203716,5.3596 z m 323.48926,-56.38701 c -54.42079,-50.28916 -62.06107,-57.62433 -61.91917,-59.44635 0.1301,-1.67044 12.31777,-13.336 62.08105,-59.42151 38.08562,-35.27089 62.01442,-56.897585 62.16661,-56.185808 0.13609,0.636466 0.56345,0.95129 0.94968,0.699619 0.4286,-0.279276 0.70225,44.528239 0.70225,114.983639 0,70.4554 -0.27365,115.26292 -0.70225,114.98364 -0.38623,-0.25167 -0.81359,0.0401 -0.94968,0.64853 -0.14543,0.65013 -25.83969,-22.54319 -62.32849,-56.26176 z M 144.4758,170.14225 C 68.43173,99.650054 56.31279,88.118963 56.107366,86.060251 L 55.869293,83.67433 H 234.45738 413.04546 v 2.203736 c 0,1.922666 -11.25405,12.62433 -88.23767,83.906704 -63.64141,58.92826 -88.79014,81.75183 -90.21966,81.87827 -1.64353,0.14536 -17.03118,-13.77518 -90.11233,-81.52079 z"
       id="path389" />
  </g>
</svg>
