<?xml version="1.0" encoding="UTF-8" standalone="no"?>
<!-- Created with Inkscape (http://www.inkscape.org/) -->

<svg
   version="1.1"
   id="svg427"
   width="546.1333"
   height="546.1333"
   viewBox="0 0 546.1333 546.1333"
   sodipodi:docname="relog.svg"
   inkscape:version="1.2 (dc2aedaf03, 2022-05-15)"
   xmlns:inkscape="http://www.inkscape.org/namespaces/inkscape"
   xmlns:sodipodi="http://sodipodi.sourceforge.net/DTD/sodipodi-0.dtd"
   xmlns="http://www.w3.org/2000/svg"
   xmlns:svg="http://www.w3.org/2000/svg">
  <defs
     id="defs431" />
  <sodipodi:namedview
     id="namedview429"
     pagecolor="#ffffff"
     bordercolor="#000000"
     borderopacity="0.25"
     inkscape:showpageshadow="2"
     inkscape:pageopacity="0.0"
     inkscape:pagecheckerboard="0"
     inkscape:deskcolor="#d1d1d1"
     showgrid="false"
     inkscape:zoom="0.91918951"
     inkscape:cx="318.75908"
     inkscape:cy="273.06665"
     inkscape:window-width="1360"
     inkscape:window-height="705"
     inkscape:window-x="-8"
     inkscape:window-y="-8"
     inkscape:window-maximized="1"
     inkscape:current-layer="g433" />
  <g
     inkscape:groupmode="layer"
     inkscape:label="Image"
     id="g433">
    <path
       style="fill:#808080;stroke-width:1.06667"
       d="m 243.73335,546.17487 c -3.52,-0.4705 -10.64399,-0.90754 -15.83109,-0.97122 -13.35252,-0.16391 -37.32811,-6.43127 -61.43846,-16.06038 -19.66368,-7.85321 -49.44124,-25.67495 -68.052952,-40.7294 -10.63036,-8.59857 -31.0049,-28.97312 -39.60347,-39.60348 C 26.042698,408.30364 3.907077,356.11176 1.470947,313.62123 c -1.13778997,-19.84532 -1.13778997,-59.08801 0,-78.93333 1.18255,-20.62585 6.3094801,-41.35218 16.60702,-67.13622 C 25.931178,147.888 43.752928,118.11045 58.807378,99.49873 67.405948,88.868379 87.780488,68.493835 98.410848,59.895265 138.9176,27.130581 191.10948,4.9949634 233.60002,2.5588384 c 19.84532,-1.137798 59.088,-1.137798 78.93332,0 20.62586,1.182549 41.35218,6.309477 67.13622,16.6070176 19.66368,7.853213 49.44121,25.674954 68.05291,40.729409 10.6304,8.59857 31.0049,28.973114 39.6035,39.603465 32.7647,40.50675 54.9003,92.69863 57.3364,135.18917 1.1378,19.84532 1.1378,59.08801 0,78.93333 -1.1825,20.62585 -6.3094,41.35218 -16.607,67.13622 -7.8532,19.66368 -25.6749,49.44123 -40.7294,68.05294 -8.5986,10.63036 -28.9731,31.00491 -39.6035,39.60348 -38.5715,31.19937 -90.70837,54.09031 -129.32246,56.77968 -19.71215,1.3729 -67.07963,1.99543 -74.66666,0.98132 z m 54.61203,-58.19669 c 64.91398,-8.47285 122.45289,-45.80564 157.92899,-102.46856 25.3639,-40.51141 36.6108,-90.70464 30.6159,-136.63375 C 478.41747,183.96189 441.08467,126.42297 384.42173,90.946829 343.91032,65.583005 293.7171,54.336078 247.78798,60.330947 182.874,68.803803 125.33508,106.13659 89.858938,162.79951 c -25.36382,40.51141 -36.61075,90.70463 -30.61588,136.63375 8.47286,64.91398 45.805642,122.4529 102.468572,157.92904 40.48317,25.34615 90.73664,36.60658 136.63375,30.61588 z m 15.78796,-140.08057 -70.39999,-43.47715 -0.27309,-84.46628 -0.27309,-84.46627 h 22.93976 22.93975 v 70.67034 70.67035 l 61.33333,36.79263 c 59.29006,35.56692 61.33326,36.89936 61.33236,39.99632 -6e-4,2.18523 -3.3355,8.62915 -10.4903,20.27034 -9.45833,15.3889 -10.79521,17.08732 -13.59912,17.27677 -2.4245,0.16381 -18.62009,-9.36876 -73.50961,-43.26705 z"
       id="path437" />
  </g>
</svg>
