<?xml version="1.0" encoding="UTF-8" standalone="no"?>
<!-- Created with Inkscape (http://www.inkscape.org/) -->

<svg
   version="1.1"
   id="svg451"
   width="682.66669"
   height="682.66669"
   viewBox="0 0 682.66669 682.66669"
   sodipodi:docname="ubicacion.svg"
   inkscape:version="1.2 (dc2aedaf03, 2022-05-15)"
   xmlns:inkscape="http://www.inkscape.org/namespaces/inkscape"
   xmlns:sodipodi="http://sodipodi.sourceforge.net/DTD/sodipodi-0.dtd"
   xmlns="http://www.w3.org/2000/svg"
   xmlns:svg="http://www.w3.org/2000/svg">
  <defs
     id="defs455" />
  <sodipodi:namedview
     id="namedview453"
     pagecolor="#ffffff"
     bordercolor="#000000"
     borderopacity="0.25"
     inkscape:showpageshadow="2"
     inkscape:pageopacity="0.0"
     inkscape:pagecheckerboard="0"
     inkscape:deskcolor="#d1d1d1"
     showgrid="false"
     inkscape:zoom="0.73535154"
     inkscape:cx="130.5498"
     inkscape:cy="341.33334"
     inkscape:window-width="1360"
     inkscape:window-height="705"
     inkscape:window-x="-8"
     inkscape:window-y="-8"
     inkscape:window-maximized="1"
     inkscape:current-layer="g457" />
  <g
     inkscape:groupmode="layer"
     inkscape:label="Image"
     id="g457">
    <path
       style="fill:#999999;stroke-width:1.33333"
       d="m 321.34915,682.09959 c -3.59985,-1.3049 -5.51243,-3.61904 -10.12368,-12.2493 C 290.41967,630.91083 267.731,596.88386 214.43693,524.69325 174.70947,470.87955 155.63135,443.81406 142.53843,422.69324 100.23517,354.45188 83.888662,305.08008 83.813522,245.32493 83.762022,204.39832 90.709192,172.4905 107.31121,137.40118 137.04425,74.558685 196.06019,24.784159 261.23007,7.584728 c 28.83785,-7.61079699 111.77867,-7.59006399 138.55743,0.03464 87.00734,24.77354 153.45456,97.776022 172.70277,189.740532 4.30976,20.59126 5.93716,60.39523 3.38129,82.70165 -4.58932,40.05344 -19.48958,82.96577 -43.33428,124.80137 -15.68764,27.52406 -36.00614,56.71371 -83.41215,119.83033 -58.67656,78.12228 -75.81292,103.07484 -97.06174,141.33334 -7.55008,13.59394 -8.53917,14.78857 -13.52322,16.33333 -6.41191,1.98732 -11.18997,1.91497 -17.19102,-0.26033 z m 31.35118,-314.67324 c 27.17665,-5.78261 48.44422,-17.8256 67.83642,-38.41312 41.24099,-43.783 45.48433,-105.9793 10.57394,-154.98666 -6.52598,-9.16117 -22.49768,-24.92261 -31.32319,-30.91081 -9.74151,-6.6097 -24.41381,-13.48797 -36.94891,-17.32137 -10.40118,-3.18083 -13.9649,-3.59381 -31.71776,-3.67564 -17.05789,-0.0786 -21.54853,0.35634 -30.52671,2.95679 -44.57882,12.91187 -77.65517,45.99938 -90.39384,90.42432 -4.35849,15.19986 -4.35849,44.52023 0,59.72009 13.57453,47.33998 50.09218,81.74385 97.73786,92.08044 11.33489,2.45907 33.50408,2.52145 44.76219,0.126 z"
       id="path461" />
  </g>
</svg>
