<?xml version="1.0" encoding="UTF-8" standalone="no"?>
<!-- Created with Inkscape (http://www.inkscape.org/) -->

<svg
   width="210mm"
   height="297mm"
   viewBox="0 0 210 297"
   version="1.1"
   id="svg471"
   xml:space="preserve"
   inkscape:version="1.2 (dc2aedaf03, 2022-05-15)"
   sodipodi:docname="telefono.svg"
   xmlns:inkscape="http://www.inkscape.org/namespaces/inkscape"
   xmlns:sodipodi="http://sodipodi.sourceforge.net/DTD/sodipodi-0.dtd"
   xmlns="http://www.w3.org/2000/svg"
   xmlns:svg="http://www.w3.org/2000/svg"><sodipodi:namedview
     id="namedview473"
     pagecolor="#ffffff"
     bordercolor="#000000"
     borderopacity="0.25"
     inkscape:showpageshadow="2"
     inkscape:pageopacity="0.0"
     inkscape:pagecheckerboard="0"
     inkscape:deskcolor="#d1d1d1"
     inkscape:document-units="mm"
     showgrid="false"
     inkscape:zoom="0.46769781"
     inkscape:cx="66.282115"
     inkscape:cy="767.58965"
     inkscape:window-width="1360"
     inkscape:window-height="705"
     inkscape:window-x="-8"
     inkscape:window-y="-8"
     inkscape:window-maximized="1"
     inkscape:current-layer="layer1" /><defs
     id="defs468" /><g
     inkscape:label="Capa 1"
     inkscape:groupmode="layer"
     id="layer1"><path
       style="fill:#999999;stroke-width:0.513681"
       d="m 147.64735,241.20578 c -5.96688,-0.90034 -15.30881,-3.65688 -22.52938,-6.64776 C 97.587683,223.15446 65.744275,196.12759 36.805692,159.60359 19.160433,137.33311 7.3427039,116.00983 3.1344676,98.848953 1.327844,91.481749 0.49773731,80.182013 1.3714927,74.850821 3.8523107,59.714102 13.729865,47.176137 28.275637,40.700357 c 8.563895,-3.812651 22.846996,-6.504788 29.977891,-5.650358 4.889513,0.585867 9.148414,3.707123 11.463728,8.401518 0.9063,1.837553 2.628947,8.032458 7.328233,26.353427 5.45092,21.251347 4.602694,23.253976 -11.812488,27.888806 -9.750708,2.75312 -11.205412,3.70128 -12.797699,8.3414 -2.056233,5.99214 -0.504063,12.02935 6.521844,25.36682 11.285571,21.42371 33.798118,44.19997 54.841014,55.4834 6.22728,3.33913 8.03321,3.87645 13.11523,3.90217 6.09716,0.0309 7.21845,-0.58965 12.27102,-6.79051 7.95315,-9.76065 11.3146,-11.56681 18.60106,-9.99464 4.75121,1.02515 36.87178,15.68 43.98007,20.06569 5.46366,3.37098 8.21437,7.7465 7.51782,11.95852 -0.99185,5.99777 -7.32743,16.01964 -13.96927,22.09716 -6.41777,5.87247 -15.49551,10.3876 -24.80902,12.33963 -6.03679,1.26527 -17.02684,1.6222 -22.85772,0.74239 z"
       id="path487" /></g></svg>
